<svg width="30" height="36" viewBox="0 0 30 36" fill="none" xmlns="http://www.w3.org/2000/svg">
<g clip-path="url(#clip0_103_107)">
<path d="M64.0839 12.8085C64.0905 12.76 64.0905 12.7109 64.0839 12.6624C64.0902 12.6228 64.0902 12.5825 64.0839 12.5429L63.6097 9.12986C63.5413 8.72153 63.3583 8.33989 63.0814 8.02761L63.0001 7.93464L62.8512 7.78855L54.6422 0.856257L54.8724 1.08204C54.684 0.861052 54.4475 0.684292 54.1803 0.564779C53.9131 0.445265 53.6218 0.386036 53.3282 0.39146H50.8356C50.4303 0.383587 50.0343 0.509921 49.7113 0.750032C49.3721 0.511367 48.9638 0.38568 48.5463 0.39146H46.0538C45.7269 0.386261 45.4045 0.465799 45.119 0.622045C44.8335 0.778291 44.5953 1.0057 44.4283 1.28123C44.1709 1.67478 44.0741 2.14894 44.1573 2.60926L44.4689 4.76065C44.2625 4.64594 44.0289 4.58642 43.7916 4.58803H31.7219C31.2889 4.59069 30.8658 4.71513 30.5027 4.94658C30.1517 5.16202 29.8699 5.4705 29.69 5.83635L28.7553 5.05282C28.3874 4.71912 27.9018 4.53825 27.4007 4.54818H8.4631C8.02852 4.55594 7.60359 4.67497 7.23043 4.89347C6.7199 5.18641 6.34576 5.66274 6.18735 6.22149L0.17283 25.9427C0.0604509 26.2676 0.0493959 26.6181 0.141081 26.9493C0.232766 27.2803 0.423039 27.5773 0.687592 27.8019C0.756526 27.8592 0.828907 27.9125 0.904336 27.9612C0.904336 27.9612 0.782401 27.8816 0.714669 27.8152L8.92371 34.7608C9.27096 35.0742 9.72499 35.2494 10.197 35.2521H29.2836C29.7195 35.241 30.1447 35.1173 30.5164 34.8935C30.7265 34.7809 30.9145 34.6325 31.0717 34.4553L31.1395 34.3623L31.2478 34.2296L31.3291 34.0834L32.2232 34.8405C32.5654 35.1414 33.0096 35.307 33.4694 35.3053H52.5966C53.0321 35.291 53.4565 35.1676 53.8293 34.9467C54.0348 34.8272 54.2217 34.6796 54.3848 34.5084L54.4524 34.4155L54.5608 34.2827C54.6184 34.1987 54.6684 34.1098 54.7098 34.017C54.7541 33.9365 54.7904 33.852 54.8182 33.7648L60.3044 15.7567V15.5974C60.3112 15.5356 60.3112 15.4732 60.3044 15.4114V15.2919C60.311 15.2523 60.311 15.212 60.3044 15.1724C60.3105 15.0884 60.3105 15.0041 60.3044 14.92H62.0655C62.2186 14.9338 62.3728 14.9338 62.526 14.92H62.6479C62.7471 14.891 62.8425 14.8509 62.9324 14.8005H63.0679L63.3117 14.6146L63.4201 14.5349L63.6097 14.2958V14.2162L63.7452 13.9904C63.7376 13.9465 63.7376 13.9016 63.7452 13.8577C63.738 13.8361 63.738 13.8128 63.7452 13.7913C63.774 13.7134 63.7966 13.6334 63.8129 13.5522C63.8066 13.526 63.8066 13.4987 63.8129 13.4725C63.8063 13.4329 63.8063 13.3925 63.8129 13.353C63.8129 13.353 64.0839 12.835 64.0839 12.8085Z" fill="black"/>
<path d="M27.9561 6.06263C28.028 6.12638 28.0782 6.21021 28.1 6.30282C28.1219 6.39543 28.1141 6.49236 28.078 6.58055L22.0771 26.2885C22.0015 26.5036 21.8469 26.6835 21.6436 26.7931C21.4782 26.9016 21.2867 26.9657 21.0881 26.9791H2.01513C1.85224 26.9714 1.69793 26.9052 1.58164 26.7931C1.51247 26.7304 1.46392 26.6489 1.4422 26.559C1.42048 26.4691 1.4266 26.375 1.45973 26.2885L7.47425 6.58055C7.54355 6.36267 7.69328 6.17797 7.89418 6.06263C8.06235 5.96192 8.25293 5.90268 8.44957 5.88998H27.5226C27.6842 5.8915 27.8392 5.95323 27.9561 6.06263ZM17.9996 22.3177L21.5894 10.5513H11.5381L7.96189 22.3177H17.9996ZM46.1622 6.26182C46.2272 6.33596 46.3086 6.39476 46.4001 6.43384C46.4916 6.47293 46.5908 6.4913 46.6905 6.48758H49.1695C49.2639 6.48849 49.3569 6.4658 49.4399 6.42165C49.5228 6.3775 49.5929 6.31335 49.6436 6.23526C49.6876 6.17426 49.7187 6.10521 49.735 6.03221C49.7512 5.95921 49.7524 5.88375 49.7383 5.8103L49.2507 2.30431C49.2043 2.14205 49.1209 1.99221 49.0069 1.86606C48.9418 1.79192 48.8605 1.73312 48.769 1.69404C48.6776 1.65495 48.5783 1.63659 48.4786 1.6403H45.9997C45.9052 1.6394 45.8122 1.66209 45.7292 1.70624C45.6463 1.75039 45.5761 1.81454 45.5255 1.89263C45.4307 2.07855 45.3901 2.19807 45.4307 2.30431L45.9319 5.8103C45.9576 5.98101 46.0383 6.1392 46.1622 6.26182ZM54.0326 2.27775C53.9861 2.11548 53.9027 1.96564 53.7887 1.8395C53.7264 1.76563 53.6474 1.70685 53.5582 1.6677C53.4689 1.62855 53.3717 1.61008 53.274 1.61374H50.7814C50.6886 1.61114 50.5968 1.63323 50.5157 1.67765C50.4346 1.72207 50.3673 1.78718 50.3209 1.86606C50.2308 1.98388 50.1917 2.13187 50.2125 2.27775L50.7137 5.78373C50.7451 5.95265 50.825 6.10927 50.944 6.23526C51.0103 6.30795 51.0918 6.36576 51.183 6.40472C51.2742 6.44369 51.3728 6.46289 51.4723 6.46101H53.9648C54.0574 6.46222 54.1487 6.43955 54.2295 6.39526C54.3104 6.35097 54.3779 6.28665 54.4254 6.20871C54.4725 6.14929 54.5054 6.08027 54.5219 6.00674C54.5383 5.93321 54.5377 5.85702 54.5202 5.78373L54.0326 2.27775ZM43.9812 7.58985L43.7374 5.86342H31.7219C31.5333 5.87361 31.3508 5.93324 31.1936 6.03606C31.0939 6.0894 31.007 6.16333 30.9392 6.25274C30.8714 6.34217 30.8242 6.44494 30.8008 6.55399L29.7984 9.84747C29.7584 9.92978 29.7447 10.0221 29.7592 10.1122C29.7738 10.2023 29.8157 10.2859 29.8796 10.3522C29.9939 10.4574 30.143 10.5188 30.2996 10.5248H44.9024L41.3127 22.2911H26.7505C26.5627 22.2953 26.3798 22.3505 26.2222 22.4504C26.0306 22.5697 25.8907 22.7542 25.8294 22.9684L24.8134 26.2619C24.7802 26.3464 24.7715 26.4382 24.7882 26.5273C24.805 26.6164 24.8465 26.6991 24.9082 26.7665C25.0188 26.8789 25.1691 26.9454 25.3281 26.9524H44.4553C44.6532 26.9358 44.8438 26.872 45.0107 26.7665C45.2107 26.6564 45.3608 26.4761 45.4307 26.2619L50.9304 8.25386H44.7398C44.6416 8.25576 44.5441 8.23788 44.4532 8.20134C44.3624 8.16479 44.2801 8.11033 44.2116 8.04137C44.0996 7.92094 44.0203 7.77479 43.9812 7.61641V7.58985Z" fill="white"/>
</g>
<defs>
<clipPath id="clip0_103_107">
<rect width="64.0093" height="34.9141" fill="white" transform="translate(0.0795898 0.391113)"/>
</clipPath>
</defs>
</svg>
