<svg width="56" height="35" viewBox="0 0 56 35" fill="none" xmlns="http://www.w3.org/2000/svg">
<g clip-path="url(#clip0_103_83)">
<path d="M51.5178 4.70339C51.5178 4.74274 51.5178 4.79194 51.5076 4.82145C51.4563 5.20514 51.4563 5.58883 51.487 5.98236C51.5076 6.08074 51.5281 6.17912 51.6101 6.25783C51.7433 6.40539 51.9483 6.37588 52.0304 6.19879C52.0714 6.11025 52.0714 6.02171 52.0508 5.93316C51.9483 5.55931 51.9278 5.16579 51.9176 4.78209C51.9176 4.76242 51.9176 4.7329 51.9176 4.70339C52.0304 4.69355 52.1329 4.68371 52.2251 4.68371C52.2969 4.67388 52.3584 4.66404 52.4097 4.63452C52.5634 4.55582 52.5634 4.38857 52.3993 4.30987C52.3378 4.28035 52.2559 4.27051 52.1841 4.27051C51.9278 4.28035 51.6716 4.28035 51.4153 4.28035C51.3231 4.28035 51.2308 4.29019 51.1385 4.30002C51.0873 4.30987 51.0258 4.30987 50.9848 4.33938C50.913 4.36889 50.8721 4.41808 50.8721 4.48695C50.8823 4.55582 50.913 4.59517 50.9848 4.62469C51.0258 4.6542 51.077 4.66404 51.1283 4.66404C51.2513 4.67388 51.3846 4.69355 51.5178 4.70339ZM54.3367 5.15595C54.3367 5.16579 54.3469 5.17562 54.3469 5.17562C54.388 5.44125 54.429 5.69705 54.4597 5.95284C54.47 6.04138 54.4802 6.12009 54.5417 6.18895C54.675 6.3562 54.88 6.33653 54.9722 6.15944C55.0132 6.0709 55.0235 5.98236 55.003 5.88397C54.9415 5.58883 54.9107 5.29368 54.8492 5.00837C54.8082 4.83128 54.757 4.66404 54.7058 4.50663C54.675 4.40825 54.6032 4.33937 54.4802 4.32954C54.3572 4.30987 54.265 4.36889 54.2137 4.45744C54.1522 4.53614 54.1009 4.61485 54.0599 4.70339C53.9882 4.8608 53.9267 5.01822 53.8447 5.16579C53.8344 5.20514 53.8242 5.23466 53.8037 5.26416C53.7935 5.24449 53.7832 5.23466 53.7832 5.23466C53.6499 4.9887 53.5269 4.74274 53.3937 4.50663C53.3731 4.48695 53.3629 4.46727 53.3527 4.4476C53.2912 4.35906 53.2194 4.30987 53.1067 4.30987C53.0041 4.3197 52.9221 4.37873 52.8709 4.46727C52.8504 4.50663 52.8504 4.53614 52.8401 4.5755C52.7991 4.89032 52.7478 5.20514 52.7069 5.51996C52.6864 5.69705 52.6761 5.87413 52.6761 6.05122C52.6659 6.09057 52.6761 6.13976 52.6966 6.17912C52.7171 6.25782 52.7786 6.30702 52.8606 6.31685C52.9631 6.32669 53.0349 6.29718 53.0656 6.21847C53.0964 6.15945 53.1067 6.11025 53.1169 6.06106C53.1579 5.88397 53.1886 5.71672 53.2194 5.54948C53.2399 5.45109 53.2501 5.37239 53.2809 5.26416C53.3014 5.30352 53.3219 5.33304 53.3424 5.36255C53.4346 5.48061 53.5269 5.59867 53.6397 5.69705C53.7524 5.77575 53.8447 5.76592 53.9369 5.67737C53.9575 5.65769 53.9677 5.64786 53.9882 5.62818C54.0805 5.49044 54.1932 5.35271 54.2854 5.21497C54.306 5.1953 54.3162 5.17562 54.3367 5.15595Z" fill="#3A3B7B"/>
<path d="M30.7184 4.89729C30.6471 5.08426 30.6335 5.21897 30.6664 5.33093C30.7027 5.48317 30.7971 5.53301 30.9251 5.49429C32.1291 5.20854 34.7692 6.01962 35.7467 6.24568C35.9772 6.29315 36.1647 6.00753 36.0074 5.75146C35.7779 5.50347 33.1389 4.44174 32.1319 4.38385C31.7373 4.36244 31.0316 4.2653 30.7184 4.89729Z" fill="#3A3B7B"/>
<path d="M41.0365 1.46007C41.1648 1.53115 41.2366 1.59896 41.272 1.67472C41.3247 1.7741 41.2969 1.84286 41.2083 1.87795C40.4124 2.25075 39.3534 3.85574 38.9259 4.40928C38.8223 4.53662 38.5832 4.46262 38.5471 4.25322C38.5545 4.01644 39.4933 2.27467 40.0173 1.80027C40.2232 1.61505 40.5633 1.25163 41.0365 1.46007Z" fill="#3A3B7B"/>
<path d="M34.6984 0.670077C34.8526 0.558565 35.0128 0.519488 35.0946 0.591957C36.2954 1.57758 36.9321 3.1384 37.3264 4.5673C37.3413 4.60059 37.3422 4.64836 37.3304 4.6982C37.3254 4.74079 37.293 4.78579 37.2415 4.82061C37.1865 4.85904 37.1391 4.87075 37.1169 4.83763C36.5906 4.1506 33.5847 1.4775 34.6984 0.670077Z" fill="#3A3B7B"/>
<path d="M9.27021 17.7582C9.55801 17.5526 9.87089 17.3814 10.202 17.2485C10.5484 17.1535 10.9176 17.1692 11.2538 17.2935C11.59 17.4177 11.875 17.6436 12.0655 17.9371C12.2359 18.2298 12.3026 18.5678 12.2555 18.9001C12.2085 19.2323 12.0502 19.5409 11.8046 19.7793C11.6141 19.9726 11.3979 20.141 11.1617 20.2801C10.1088 20.933 9.04657 21.55 7.98438 22.2028C7.76703 22.3662 7.53646 22.5128 7.29487 22.6411C6.92739 22.8169 6.50743 22.864 6.10759 22.7742C5.70776 22.6845 5.3532 22.4633 5.10523 22.1492C4.91985 21.9268 4.76341 21.6836 4.63934 21.4248C3.63304 19.3948 2.58947 17.3737 1.62043 15.3079C1.17319 14.4137 0.8098 13.3852 0.455731 12.3925C0.302544 12.1041 0.27263 11.7698 0.372359 11.4605C0.472087 11.1512 0.69359 10.8915 0.98975 10.7366C1.28591 10.5816 1.63336 10.5437 1.95821 10.6309C2.28306 10.718 2.55968 10.9233 2.72923 11.2031C3.25039 11.8679 3.71173 12.574 4.10824 13.3137C5.11454 15.1022 6.07426 16.8908 7.04329 18.6257C7.09972 18.7216 7.16193 18.8141 7.22964 18.9029C7.95901 18.6086 8.64501 18.2238 9.27021 17.7582Z" fill="#3A3B7B"/>
<path d="M19.6749 17.1343C17.3735 19.7187 13.516 19.0659 11.5779 15.7392C10.1989 13.3783 9.95666 9.47917 12.957 7.0199C13.5976 6.50503 14.3637 6.1543 15.1838 6.00041C16.1894 5.86206 17.2147 6.03231 18.1133 6.48685C19.012 6.94139 19.7379 7.65694 20.1874 8.53125C21.8273 11.393 21.5944 15.0416 19.6749 17.1343ZM18.7432 11.1068C18.4987 10.4035 18.0082 9.80318 17.3548 9.40761C16.9851 9.15471 16.5359 9.03175 16.0828 9.05944C15.6297 9.08713 15.2004 9.26378 14.867 9.55964C13.5347 10.6954 13.2551 13.3872 14.2241 14.988C14.3476 15.249 14.529 15.481 14.7557 15.6677C14.9824 15.8544 15.2488 15.9913 15.5364 16.0688C15.824 16.1463 16.1257 16.1626 16.4205 16.1165C16.7153 16.0703 16.996 15.9629 17.2431 15.8018C17.9653 15.2643 18.4952 14.5242 18.759 13.6845C19.0229 12.8446 19.0076 11.9468 18.7153 11.1158L18.7432 11.1068Z" fill="#3A3B7B"/>
<path d="M29.067 12.2335C28.8314 12.2822 28.588 12.2851 28.3512 12.2421C28.1144 12.199 27.8889 12.111 27.688 11.9832C27.5123 11.8867 27.361 11.7541 27.2451 11.5947C27.1292 11.4354 27.0515 11.2535 27.0177 11.0619C26.9838 10.8703 26.9946 10.674 27.0492 10.4869C27.1039 10.2998 27.2012 10.1267 27.334 9.97994C27.5653 9.68508 27.8936 9.47399 28.2657 9.38079C29.2373 9.11017 30.2374 8.94518 31.2474 8.88896C31.4693 8.86418 31.6941 8.88221 31.9086 8.94196C32.1232 9.00179 32.3231 9.10204 32.4967 9.23704C32.6703 9.37197 32.814 9.53888 32.9195 9.72788C33.0249 9.91688 33.09 10.1242 33.1109 10.3377C33.402 11.3863 33.4339 12.4857 33.204 13.5482C32.3655 16.9822 29.477 18.1626 26.2345 17.0627C25.3243 16.7686 24.5262 16.2206 23.9424 15.4888C23.1636 14.6074 22.6114 13.5629 22.3304 12.4393C22.1027 11.4386 22.1276 10.4004 22.4032 9.41094C22.6787 8.42151 23.1969 7.50968 23.9144 6.7516C24.5953 5.92766 25.4791 5.27921 26.4861 4.86466C27.1224 4.52804 27.867 4.43232 28.5732 4.59637C28.7334 4.63893 28.8788 4.72185 28.9944 4.83653C29.11 4.95122 29.1915 5.09348 29.2305 5.24859C29.2695 5.40369 29.2645 5.56597 29.2161 5.71862C29.1677 5.87125 29.0776 6.00869 28.9553 6.11666C28.7226 6.31881 28.4698 6.49853 28.2005 6.65323C27.3721 7.15953 26.6513 7.81195 26.0761 8.57592C25.699 9.07029 25.4394 9.63798 25.3154 10.239C25.1914 10.84 25.2062 11.4597 25.3587 12.0547C25.57 12.866 26.0389 13.5941 26.7003 14.1384C28.7502 15.927 31.4151 14.201 30.9492 11.7596C30.2691 11.9206 29.6727 12.0905 29.067 12.2335Z" fill="#3A3B7B"/>
<path d="M41.5898 17.2772C38.5616 19.0658 35.1141 17.2772 34.3593 13.5212C33.8096 10.8384 34.8532 7.08236 38.5058 5.6515C39.2829 5.35362 40.1258 5.24903 40.9563 5.34745C41.954 5.52276 42.8694 5.99421 43.5731 6.69535C44.2769 7.39648 44.7337 8.29191 44.8789 9.25548C45.4939 12.448 44.0963 15.8553 41.5898 17.2772ZM42.6428 11.2586C42.6418 10.5157 42.368 9.79687 41.8694 9.22863C41.6029 8.87717 41.2176 8.62535 40.7792 8.51604C40.3407 8.40681 39.8765 8.44685 39.4654 8.62949C37.8255 9.3091 36.6701 11.7773 37.0894 13.5928C37.1215 13.8777 37.2179 14.1524 37.3721 14.3978C37.5263 14.6432 37.7344 14.8533 37.9821 15.0134C38.2296 15.1735 38.5107 15.2798 38.8055 15.3249C39.1004 15.3698 39.402 15.3525 39.689 15.274C40.5559 14.9834 41.3064 14.4402 41.8359 13.7203C42.3655 13.0005 42.6475 12.1398 42.6428 11.2586Z" fill="#3A3B7B"/>
<path d="M47.9413 18.029C47.8956 18.3563 47.7163 18.6527 47.4428 18.8532C47.1693 19.0535 46.8241 19.1415 46.4831 19.0976C46.1421 19.0537 45.8332 18.8816 45.6244 18.6191C45.4155 18.3567 45.324 18.0254 45.3697 17.6981C45.4154 17.3708 45.5947 17.0743 45.8681 16.8739C46.1416 16.6734 46.4868 16.5855 46.8279 16.6294C47.1689 16.6733 47.4778 16.8453 47.6866 17.1078C47.8954 17.3703 47.9871 17.7017 47.9413 18.029ZM47.1307 5.96503C47.3079 5.70527 47.5679 5.50745 47.8718 5.40109C48.1757 5.29472 48.5073 5.2855 48.8172 5.37481C49.1322 5.45045 49.4104 5.62764 49.6055 5.87673C49.8006 6.12582 49.9005 6.43167 49.8887 6.74306C49.8476 7.24254 49.7698 7.73862 49.6558 8.22755C49.3483 9.88201 49.0501 11.5364 48.724 13.173C48.5749 13.8258 48.3793 14.4518 48.1649 15.1135C48.0904 15.3204 47.9658 15.5073 47.8016 15.6591C47.6994 15.7732 47.569 15.8607 47.4223 15.9136C47.2755 15.9665 47.1173 15.983 46.9622 15.9616C46.8071 15.9402 46.66 15.8816 46.5347 15.7912C46.4095 15.7008 46.31 15.5815 46.2455 15.4445C46.1347 15.1985 46.0746 14.9343 46.0685 14.6664C46.0685 13.5575 46.0685 12.4397 46.143 11.3218C46.2697 9.72645 46.5188 8.14224 46.8884 6.58209C46.9319 6.37307 47.0139 6.17318 47.1307 5.99186V5.96503Z" fill="#3A3B7B"/>
<path fill-rule="evenodd" clip-rule="evenodd" d="M5.33358 25.2149C5.22356 25.4506 5.19339 25.7134 5.24715 25.9663C5.28292 26.2997 5.36147 26.6276 5.48103 26.9425C5.6303 27.3282 5.79732 27.7096 6.00327 28.1796C6.05063 28.2878 6.10013 28.4007 6.15192 28.5195C6.42965 29.1563 6.77813 29.9702 7.24295 31.148C7.37452 31.4826 7.49135 31.8199 7.60899 32.1596C7.65652 32.2968 7.70422 32.4345 7.75304 32.5725C7.92804 33.0631 8.22917 33.5038 8.62831 33.8532C8.7978 34.0451 9.02262 34.1851 9.2747 34.255C9.5317 34.3263 9.80504 34.3218 10.0593 34.242C10.3136 34.1622 10.5369 34.0108 10.7003 33.8074C10.8605 33.6081 10.9557 33.3678 10.9743 33.1169C11.0782 32.6279 11.0427 32.121 10.8714 31.6496C10.5996 30.867 10.2899 30.0832 9.9328 29.3166L9.93116 29.3133C9.3437 28.1139 8.74654 26.9228 8.12113 25.7313L8.11645 25.7229C7.93337 25.4125 7.69543 25.135 7.41334 24.9029C7.23021 24.6957 6.97761 24.5559 6.69864 24.5078C6.41373 24.4586 6.11989 24.5081 5.86957 24.6477C5.63277 24.7775 5.44506 24.976 5.33358 25.2149Z" fill="#3A3B7B"/>
<path fill-rule="evenodd" clip-rule="evenodd" d="M14.3062 22.2621C13.3851 22.0331 12.4231 21.9997 11.4873 22.1643C10.7624 22.2328 10.0496 22.3933 9.55454 22.7112C9.30277 22.8729 9.09921 23.0807 8.98599 23.3447C8.87213 23.6102 8.8576 23.9138 8.9509 24.252C9.12125 24.8717 9.34247 25.4741 9.5629 26.0746L9.59861 26.1719L9.59947 26.174C10.2632 27.9186 10.9333 29.6573 11.6094 31.39C11.6883 31.6631 11.7998 31.9265 11.9417 32.1749L11.9443 32.1795C12.1318 32.4882 12.3722 32.7643 12.6555 32.9961C12.7972 33.1236 12.9724 33.2118 13.1623 33.2513C13.3542 33.291 13.5536 33.2795 13.7391 33.2178C13.9246 33.1562 14.0888 33.0469 14.214 32.9018C14.3372 32.759 14.4178 32.5871 14.4474 32.404C14.5696 31.9068 14.5305 31.3856 14.3351 30.9104C14.2742 30.7504 14.2264 30.587 14.176 30.4149C14.1592 30.3575 14.1421 30.2992 14.1242 30.2397C15.6719 29.6591 17.3187 28.8783 17.8978 27.0619C18.1246 26.4342 18.1435 25.7545 17.9519 25.116C17.7601 24.4769 17.3667 23.9103 16.8258 23.4944C16.0896 22.9122 15.2297 22.4916 14.3062 22.2621ZM11.753 24.49C11.7834 24.4815 11.8141 24.4737 11.8449 24.4664C12.8526 24.3144 13.8835 24.517 14.7479 25.0367C15.1288 25.291 15.2849 25.5735 15.3117 25.8454C15.3393 26.1253 15.2333 26.4285 15.0203 26.7201C14.6178 27.2708 13.8832 27.7117 13.2198 27.7938C12.7361 26.7247 12.2449 25.6123 11.753 24.49Z" fill="#3A3B7B"/>
<path d="M20.4474 20.3049C21.5443 19.8186 22.9031 19.7347 23.9664 20.0765C24.2342 20.1514 24.4665 20.3133 24.6237 20.5346C24.7798 20.7545 24.8518 21.0195 24.8278 21.2845C24.8262 21.4565 24.7822 21.6257 24.6995 21.7783C24.6152 21.9337 24.4932 22.0673 24.3438 22.168C24.1944 22.2685 24.022 22.3332 23.8411 22.3563C23.6601 22.3795 23.4761 22.3604 23.3044 22.3008L23.2914 22.2963L23.2791 22.2901C23.1913 22.246 23.098 22.2128 23.0014 22.1911L22.9954 22.1898C22.2474 21.9992 21.5418 22.3151 21.2841 22.7033C21.1612 22.8884 21.146 23.0752 21.2484 23.2452C21.358 23.4272 21.6269 23.6315 22.171 23.7771C22.3206 23.8165 22.474 23.8546 22.6296 23.8932C23.0598 24.0002 23.5069 24.1112 23.9393 24.2652L23.9409 24.2658C25.9356 24.9942 26.6783 26.5027 26.424 27.9216C26.1725 29.3248 24.9515 30.6018 23.1155 30.903C22.4473 31.0452 21.752 31.0175 21.0984 30.8227C20.4431 30.6273 19.8524 30.2709 19.3851 29.7886L19.3729 29.776C19.2254 29.5943 19.1261 29.3808 19.0821 29.1543C19.0416 28.9499 19.063 28.7386 19.1435 28.5454C19.2235 28.3533 19.3588 28.1871 19.5335 28.066C19.718 27.9287 19.9403 27.8463 20.1731 27.8291C20.4051 27.812 20.6373 27.8604 20.841 27.9683C21.0445 28.0626 21.2337 28.183 21.4036 28.3261L21.4068 28.3287C21.7074 28.5925 22.0709 28.6612 22.4196 28.5976C22.7734 28.533 23.106 28.3321 23.32 28.0655C23.5325 27.8007 23.6178 27.486 23.5166 27.1806C23.4147 26.8729 23.1083 26.5282 22.4351 26.24C22.2591 26.1683 22.0766 26.1105 21.8868 26.0542C21.8357 26.039 21.7836 26.0239 21.731 26.0085C21.5906 25.9677 21.4462 25.9255 21.3046 25.8791C21.2071 25.8472 21.1104 25.817 21.0146 25.787C20.7527 25.7052 20.4974 25.6254 20.2517 25.5184C19.717 25.3437 19.255 25.0081 18.9346 24.5615C18.6128 24.1131 18.4509 23.5768 18.4729 23.0328C18.4747 21.7071 19.3446 20.7938 20.4474 20.3049Z" fill="#3A3B7B"/>
<path d="M34.3542 20.1638C34.1415 20.0641 33.9063 20.0168 33.6698 20.026C33.4333 20.0354 33.2029 20.1011 32.9995 20.2173C32.7974 20.3326 32.6281 20.4942 32.5069 20.6876C32.3957 20.8504 32.3187 21.0325 32.2803 21.2237C32.242 21.4148 32.2429 21.6112 32.283 21.8018C32.3226 22.0468 32.3665 22.285 32.4099 22.52C32.4817 22.9088 32.5516 23.2889 32.5977 23.6764L32.5994 23.6862C32.7043 24.2939 32.7593 24.9086 32.7642 25.5245L32.7647 25.5333C32.8005 26.1984 32.5644 26.8507 32.1069 27.3516L32.0996 27.3605C31.9507 27.5436 31.7517 27.6833 31.5247 27.7641C31.2978 27.8448 31.052 27.8634 30.8146 27.8177C30.5773 27.772 30.358 27.6638 30.1811 27.5053C30.0042 27.3467 29.8766 27.1435 29.8129 26.9194C29.6769 26.4471 29.5982 25.9613 29.5782 25.4718L29.8104 21.9232C29.8139 21.8769 29.8178 21.8293 29.8218 21.7813C29.8306 21.6735 29.8397 21.5638 29.8434 21.4614C29.8489 21.3107 29.8442 21.1558 29.8076 21.0091C29.7702 20.8592 29.699 20.7166 29.5727 20.5952C29.4477 20.475 29.2789 20.3863 29.0665 20.326C28.6825 20.2193 28.3577 20.2226 28.0871 20.3329C27.8164 20.4431 27.6309 20.6477 27.4996 20.8841C27.3693 21.1186 27.2856 21.3961 27.2223 21.6741C27.1754 21.8803 27.1376 22.0969 27.1018 22.303C27.0893 22.374 27.0772 22.4437 27.065 22.5115L27.0646 22.5134C26.8727 23.6438 26.8156 24.7914 26.8944 25.9342C26.9091 26.5517 27.0432 27.1613 27.2902 27.7318C27.5687 28.4678 28.0733 29.1056 28.7373 29.5608C29.4026 30.017 30.1966 30.2684 31.0141 30.2816C31.8316 30.2949 32.6341 30.0695 33.3152 29.6352C33.9951 29.2016 34.5221 28.5801 34.8264 27.8531C35.252 26.9268 35.4519 25.9195 35.4107 24.908C35.3857 24.1694 35.3438 23.4252 35.3021 22.6848C35.2817 22.3216 35.2613 21.9592 35.243 21.599C35.2338 21.2378 35.1097 20.8879 34.8873 20.5963C34.7497 20.412 34.5665 20.2634 34.3542 20.1638Z" fill="#3A3B7B"/>
<path d="M41.8827 25.7281C41.8611 25.7544 41.8384 25.7817 41.8146 25.81C41.6416 24.8521 41.4812 23.8945 41.3207 22.9354C41.2631 22.5913 41.2052 22.2458 41.147 21.9012L41.1404 21.8628L41.1191 21.8296C41.0791 21.7671 41.0751 21.7058 41.0751 21.5751V21.56L41.0726 21.545C41.0292 21.2751 40.902 21.0239 40.7077 20.8243C40.5139 20.6252 40.2622 20.4867 39.9853 20.4266C39.7089 20.3611 39.4185 20.3756 39.1505 20.4681C38.8833 20.5603 38.6504 20.7262 38.4808 20.9448C38.3398 21.1125 38.2242 21.2986 38.1377 21.4974C37.9411 21.9258 37.7429 22.3552 37.5441 22.7857L37.5407 22.7932C37.0444 23.868 36.5448 24.9501 36.0597 26.0407L36.0582 26.0442C35.7604 26.7514 35.5145 27.4965 35.2696 28.2393C35.2207 28.3876 35.1717 28.5358 35.1224 28.6836C35.034 28.918 34.9953 29.167 35.0086 29.4159C34.9925 29.6387 35.048 29.861 35.1679 30.0527C35.2901 30.2483 35.4732 30.4022 35.6913 30.4928C35.9224 30.59 36.1809 30.6107 36.4257 30.5514C36.6699 30.4923 36.8869 30.357 37.0423 30.1668C37.2408 29.9324 37.4115 29.6768 37.5507 29.4061C37.9617 28.5993 38.3544 27.7827 38.7454 26.9696C38.8967 26.6551 39.0436 26.3735 39.2109 26.0667C39.2223 26.1045 39.2341 26.1414 39.2462 26.1784C39.4214 26.919 39.7173 27.6283 40.1228 28.2805C40.1995 28.4186 40.3064 28.5394 40.4361 28.6344C40.5674 28.7306 40.7189 28.7981 40.8801 28.8324C41.0413 28.8667 41.2084 28.8668 41.3697 28.8329C41.5307 28.7989 41.6827 28.7314 41.8141 28.6356L42.074 28.4489L44.0919 26.8176L43.9725 27.5474C43.8088 28.5507 43.6462 29.5455 43.4735 30.5406C43.3605 30.9817 43.3607 31.4424 43.474 31.8833C43.5231 32.1314 43.6481 32.3598 43.8331 32.5395C44.0197 32.7206 44.2587 32.8436 44.5191 32.8927C44.7794 32.9417 45.0492 32.9146 45.2932 32.8146C45.5337 32.7162 45.7383 32.5516 45.8813 32.3418C46.214 31.9456 46.4211 31.466 46.478 30.96C46.5636 30.2454 46.6604 29.5211 46.7572 28.797C46.8687 27.9623 46.9802 27.1279 47.0744 26.3096L47.0747 26.307C47.1653 25.4112 47.2092 24.5117 47.2061 23.6116C47.226 23.3272 47.1522 23.0438 46.995 22.8017C46.8372 22.5587 46.6036 22.3697 46.3274 22.2617C46.0402 22.1363 45.7186 22.1028 45.41 22.1662C45.1035 22.2291 44.826 22.3842 44.6178 22.6088C44.2456 22.9392 43.8965 23.2927 43.5726 23.6671L43.5704 23.6697C43.2168 24.0925 42.8657 24.5237 42.5168 24.9521C42.3046 25.2125 42.0931 25.4723 41.8827 25.7281Z" fill="#3A3B7B"/>
</g>
<defs>
<clipPath id="clip0_103_83">
<rect width="54.6988" height="33.7503" fill="white" transform="translate(0.314453 0.555176)"/>
</clipPath>
</defs>
</svg>
