<svg width="61" height="24" viewBox="0 0 61 24" fill="none" xmlns="http://www.w3.org/2000/svg">
<g clip-path="url(#clip0_103_103)">
<path d="M14.4683 0.209961C12.1049 0.209961 9.83834 1.1488 8.1672 2.81996L2.71327 8.27389C1.04211 9.94503 0.103271 12.2116 0.103271 14.575C0.103271 19.4965 4.0929 23.4861 9.01437 23.4861C11.3777 23.4861 13.6443 22.5472 15.3154 20.876L19.088 17.1035C19.088 17.1034 19.088 17.1036 19.088 17.1035L30.0798 6.11169C30.8779 5.31356 31.9604 4.86518 33.0891 4.86518C34.9789 4.86518 36.5809 6.0968 37.1364 7.80113L40.6054 4.33213C39.0228 1.85352 36.2479 0.209961 33.0891 0.209961C30.7258 0.209961 28.4592 1.1488 26.7881 2.81996L12.0237 17.5843C11.2256 18.3825 10.1431 18.8308 9.01437 18.8308C6.6639 18.8308 4.75849 16.9255 4.75849 14.575C4.75849 13.4462 5.20687 12.3637 6.005 11.5656L11.4589 6.11169C12.257 5.31356 13.3395 4.86518 14.4683 4.86518C16.3581 4.86518 17.9601 6.09686 18.5155 7.80124L21.9846 4.33221C20.402 1.85356 17.6271 0.209961 14.4683 0.209961Z" fill="#394149"/>
<path d="M30.6444 17.5848C29.8463 18.383 28.7638 18.8313 27.6351 18.8313C25.7456 18.8313 24.1437 17.6 23.5881 15.896L20.1191 19.3649C21.7018 21.8432 24.4765 23.4865 27.6351 23.4865C29.9984 23.4865 32.265 22.5477 33.9361 20.8765L48.7005 6.11218C49.4986 5.31405 50.5811 4.86567 51.7098 4.86567C54.0603 4.86567 55.9657 6.77108 55.9657 9.12155C55.9657 10.2503 55.5173 11.3328 54.7192 12.1309L49.2653 17.5848C48.4672 18.383 47.3847 18.8313 46.2559 18.8313C44.3663 18.8313 42.7643 17.5998 42.2088 15.8956L38.7399 19.3646C40.3224 21.8431 43.0972 23.4865 46.2559 23.4865C48.6193 23.4865 50.8859 22.5477 52.557 20.8765L58.0109 15.4226C59.6821 13.7515 60.6209 11.4849 60.6209 9.12155C60.6209 4.20008 56.6313 0.210449 51.7098 0.210449C49.3465 0.210449 47.0799 1.14929 45.4088 2.82044L30.6444 17.5848Z" fill="#394149"/>
</g>
<defs>
<clipPath id="clip0_103_103">
<rect width="60.5178" height="23.2761" fill="white" transform="translate(0.103271 0.210449)"/>
</clipPath>
</defs>
</svg>
