<svg width="108" height="108" viewBox="0 0 108 108" fill="none" xmlns="http://www.w3.org/2000/svg">
<path d="M34.6677 1.12643C32.5124 1.87974 31.1313 2.77953 29.5828 4.43262C28.4319 5.64629 26.8207 8.36658 26.8207 9.05712C26.8207 9.2873 26.2557 9.35007 24.0376 9.35007C21.5684 9.35007 21.1499 9.41285 20.3338 9.81043C18.5761 10.7311 18.5552 10.773 18.5552 16.5275C18.5552 21.5705 18.5552 21.5914 19.1202 22.7841C19.8525 24.3744 21.1081 25.6718 22.6775 26.5298L23.9958 27.2412H38.5388H53.0819L54.2747 26.6762C55.8441 25.9438 57.2461 24.5 58.0622 22.7841L58.7318 21.3821L58.7945 16.7786C58.8573 12.2796 58.8573 12.1541 58.376 11.2543C58.0203 10.6056 57.5809 10.1662 56.9531 9.83135C56.137 9.39192 55.7604 9.35007 53.2703 9.35007H50.5081L50.257 8.55491C49.2735 5.49982 46.344 2.54935 42.975 1.25198C41.8032 0.791622 41.1545 0.686996 38.9574 0.62422C36.53 0.561443 36.2161 0.582369 34.6677 1.12643Z" fill="#7299BE"/>
<path d="M9.72472 14.2674C5.74891 15.3556 2.63104 18.2642 1.24997 22.1981L0.664064 23.8931V53.9209C0.664064 86.9829 0.580363 84.8904 1.96143 87.7571C2.90307 89.7032 5.26763 92.0677 7.21369 93.0094C9.97583 94.3486 9.43177 94.3067 26.737 94.3067H42.4728L41.6358 92.2561C40.1501 88.5941 39.1876 84.5137 38.8528 80.4333L38.7063 78.6128H27.8251C15.9814 78.6128 16.1906 78.6337 15.0188 77.3782C14.5375 76.876 14.3911 76.4993 14.3074 75.5786C14.2237 74.5951 14.2864 74.3021 14.7468 73.6116C15.7512 72.0841 15.3955 72.1259 27.9088 72.1259H39.1039L39.3759 70.5984C39.6061 69.2382 40.5896 65.4507 40.9453 64.551C41.0708 64.2161 40.2966 64.1952 28.8714 64.1324C17.0067 64.0697 16.651 64.0487 15.9395 63.6302C13.7005 62.3119 13.7005 59.3405 15.9395 58.0223C16.651 57.5828 16.9858 57.5828 30.5036 57.5201L44.3561 57.4573L45.1303 56.2645C46.3022 54.4859 48.4156 51.8493 49.5037 50.7821C50.0269 50.2799 50.4663 49.7777 50.4663 49.694C50.4663 49.6103 42.8913 49.5266 33.6214 49.5266C17.2578 49.5266 16.7347 49.5057 15.9605 49.1081C14.7468 48.5012 14.2027 47.4759 14.3074 46.053C14.3911 45.1532 14.5375 44.7765 15.0188 44.2743C16.2325 42.977 15.0188 43.0397 38.2878 43.0397H59.6107L61.1591 42.3283C65.3651 40.4031 69.5293 39.2732 74.07 38.8128L76.6229 38.5617V31.5099C76.6229 24.751 76.602 24.3953 76.1417 22.784C74.6141 17.5318 69.9478 13.9536 64.6118 13.9536H63.0215V17.4481C63.0215 19.8336 62.9169 21.382 62.7076 22.3028C61.6613 26.7389 57.7902 30.4846 53.2912 31.4262C51.1359 31.8866 26.1511 31.8866 24.0167 31.4262C20.3129 30.631 17.1323 28.2246 15.5001 24.9393C14.4957 22.8677 14.2655 21.675 14.119 17.6573L13.9935 13.9536L12.4032 13.9745C11.5243 13.9745 10.3316 14.121 9.72472 14.2674Z" fill="#7299BE"/>
<path d="M72.647 47.727C66.3485 48.836 60.7824 51.7446 56.3253 56.2227C51.638 60.9099 48.6039 66.9573 47.7459 73.3186C47.4111 75.7878 47.5785 81.6887 48.0598 83.8231C50.6964 95.6669 59.7571 104.665 71.6636 107.218C74.1118 107.762 81.2264 107.741 83.6956 107.218C95.6649 104.644 104.746 95.5622 107.32 83.593C107.864 81.1028 107.864 74.0301 107.32 71.54C106.044 65.5972 103.261 60.4705 99.0129 56.2227C94.8488 52.0585 89.7012 49.2336 83.9467 47.9572C81.8333 47.4759 74.8442 47.3503 72.647 47.727ZM91.3543 65.1787C92.9655 66.2877 93.5724 68.5686 92.7563 70.3472C92.547 70.8076 88.6549 75.4321 84.1141 80.6006C75.2836 90.6866 75.179 90.7913 73.233 90.7913C72.7307 90.7913 71.9356 90.6239 71.4752 90.4355C70.4708 90.017 61.3683 81.061 60.5522 79.659C59.2967 77.5455 60.1128 74.9508 62.3936 73.7371C63.3562 73.2349 63.7119 73.1512 64.528 73.2558C65.0721 73.3186 65.8254 73.507 66.202 73.7162C66.5787 73.9045 68.2737 75.4321 69.9477 77.0852L73.0237 80.1194L79.5524 72.6699C83.1515 68.5686 86.374 65.0531 86.7298 64.8648C88.2364 64.0696 89.9313 64.1952 91.3543 65.1787Z" fill="#C3CDB4"/>
</svg>
