<svg width="86" height="108" viewBox="0 0 86 108" fill="none" xmlns="http://www.w3.org/2000/svg">
<path d="M4.67269 1.1607C3.08413 1.78776 1.28656 3.58533 0.7013 5.17389L0.241455 6.38621L0.283259 46.978L0.345965 87.5697L0.868516 88.6148C1.51648 89.9526 2.97962 91.4157 4.31735 92.0637L5.36245 92.5862L25.3657 92.6489L45.3481 92.6907L45.4317 85.5422L45.4944 78.3728L44.8255 77.1187C43.9685 75.4675 42.9861 72.6457 42.5263 70.4928C42.0873 68.3817 42.0455 64.1804 42.4427 61.9647C43.2997 57.1782 45.6616 52.4961 49.0686 48.8173C54.8794 42.5676 63.5328 39.725 71.6846 41.3971C72.5207 41.5643 73.3568 41.7734 73.524 41.8361C73.7748 41.9197 73.8166 39.5995 73.8166 24.1529C73.8166 6.44891 73.8166 6.38621 73.3568 5.17389C72.7506 3.52263 71.0158 1.78776 69.3645 1.18159L68.1522 0.721756L36.9663 0.742653C6.07312 0.742653 5.7805 0.742653 4.67269 1.1607ZM50.1973 17.9868C52.4338 19.3037 52.4338 22.2718 50.1973 23.5886C49.4867 24.0275 49.2149 24.0275 34.5208 24.0275C19.8267 24.0275 19.5549 24.0275 18.8443 23.5886C16.2106 22.0627 16.775 18.3631 19.7431 17.6524C20.0984 17.5479 26.9543 17.4852 34.9388 17.5061C49.194 17.5479 49.4867 17.5479 50.1973 17.9868ZM50.1973 31.3641C52.4338 32.681 52.4338 35.6491 50.1973 36.9659C49.4867 37.4048 49.2149 37.4048 34.5208 37.4048C19.8267 37.4048 19.5549 37.4048 18.8443 36.9659C16.2106 35.44 16.775 31.7404 19.7431 31.0297C20.0984 30.9252 26.9543 30.8625 34.9388 30.8834C49.194 30.9252 49.4867 30.9252 50.1973 31.3641ZM38.4922 44.7415C40.7287 46.0583 40.7287 49.0264 38.4922 50.3432C37.7815 50.7612 37.468 50.7821 28.6682 50.7821C19.8685 50.7821 19.5549 50.7612 18.8443 50.3432C16.2106 48.8173 16.775 45.1177 19.7431 44.3861C20.0984 44.3025 24.3206 44.2398 29.0863 44.2607C37.4262 44.3025 37.7815 44.3234 38.4922 44.7415Z" fill="#7299BE"/>
<path d="M62.634 47.9811C57.4712 49.2352 52.8727 52.9976 50.5108 57.8469C49.2149 60.5432 48.7341 62.6961 48.7341 65.936C48.7341 69.2594 49.2149 71.3705 50.6153 74.1923C52.8727 78.7489 56.6978 81.9887 61.6934 83.5982C64.0762 84.3716 68.2566 84.5597 70.9112 84.0162C77.9552 82.5949 83.745 76.8468 85.1873 69.8655C85.668 67.5454 85.6262 63.7622 85.1037 61.5465C83.536 54.9833 78.0806 49.5279 71.5174 47.9602C69.1136 47.3959 65.0168 47.3959 62.634 47.9811ZM73.6494 58.3276C74.9244 58.9756 75.656 60.6477 75.1961 61.9437C74.7572 63.2605 67.8177 73.4189 67.0652 73.8787C66.6472 74.1296 66.0201 74.2968 65.414 74.2968C64.5361 74.2968 64.1598 74.1087 61.2963 72.2066C57.8056 69.9074 57.304 69.343 57.304 67.7962C57.304 66.0823 58.7044 64.6609 60.4393 64.64C61.0663 64.64 61.5889 64.8282 62.3832 65.3089C64.1598 66.4376 64.5779 66.6675 64.6824 66.563C64.7242 66.5003 65.8529 64.8073 67.1906 62.7798C68.5284 60.7732 69.8034 58.9547 70.0333 58.7457C71.0157 57.8469 72.3743 57.7006 73.6494 58.3276Z" fill="#C3CDB4"/>
<path d="M52.0786 95.7006C52.0786 105.148 52.0995 105.566 52.4967 106.235C53.1237 107.239 54.0643 107.74 55.4229 107.74C56.5098 107.74 56.8234 107.594 61.8399 104.73L67.1281 101.699L72.3954 104.73C77.4328 107.594 77.7463 107.74 78.8332 107.74C80.1919 107.74 81.1324 107.239 81.7595 106.235C82.1566 105.566 82.1775 105.148 82.1775 95.7006V85.8348L80.5054 86.9426C73.8167 91.353 64.808 92.0636 57.2205 88.8238C56.2381 88.3849 54.6705 87.5488 53.7508 86.9426L52.0786 85.8348V95.7006Z" fill="#C3CDB4"/>
</svg>
