<svg width="108" height="108" viewBox="0 0 108 108" fill="none" xmlns="http://www.w3.org/2000/svg">
<path d="M49.8433 1.00703C48.9862 1.21607 47.4811 1.78048 46.4986 2.28218C45.0354 3.01382 44.3246 3.55733 42.6941 5.18785C40.98 6.90198 40.5619 7.44549 39.7466 9.15962C38.3461 12.0235 38.0534 13.5286 38.1579 16.9359C38.2833 20.0506 38.7014 21.5975 40.1229 24.1897C41.3144 26.3219 44.241 29.123 46.4777 30.2309C48.9235 31.4434 51.0348 31.9451 53.7942 31.9451C56.5535 31.9451 58.6439 31.4643 61.1106 30.2309C62.553 29.5202 63.2637 28.9767 64.8733 27.3462C66.5039 25.7366 67.0474 25.0258 67.7581 23.5834C68.9914 21.0958 69.4722 19.0263 69.4722 16.1834C69.4722 13.3404 69.0123 11.4591 67.7581 8.95058C67.0474 7.5082 66.483 6.79746 64.8733 5.18785C63.2637 3.55733 62.553 3.01382 61.1106 2.30308C60.1281 1.82229 58.5812 1.23697 57.6823 1.00703C55.5292 0.463522 52.0382 0.463522 49.8433 1.00703Z" fill="#C3CDB4"/>
<path d="M15.6443 13.9467C11.338 15.2009 7.99339 18.6292 6.88548 22.8936C6.44649 24.5241 6.44649 27.6598 6.88548 29.2903C7.97249 33.5129 11.4635 37.0875 15.6025 38.2163L16.8358 38.5508L14.6409 39.0943C7.74254 40.8084 2.51652 45.9717 0.781483 52.7865C0.279785 54.7514 0.279785 54.8978 0.279785 64.5346C0.279785 73.7323 0.300689 74.3177 0.676963 74.8821C1.45041 76.0527 2.03573 76.2617 4.52331 76.2617C5.75666 76.2617 6.76005 76.3245 6.76005 76.4081C6.76005 76.5126 7.40808 83.0974 8.22334 91.0618C9.79114 106.824 9.72843 106.426 11.1081 107.242C11.6725 107.576 12.4669 107.618 19.0935 107.618C25.7201 107.618 26.5144 107.576 27.0788 107.262C28.4376 106.447 28.4167 106.531 29.65 94.1974C30.2771 87.9471 30.7998 82.5539 30.7998 82.1985C30.7998 81.6341 30.6534 81.425 29.7545 80.8606C27.3715 79.3346 25.9291 76.9307 25.5528 73.8369C25.1975 70.9103 25.4483 51.9921 25.8664 49.7763C26.2845 47.5813 27.0997 45.0519 27.9986 43.0661C28.3958 42.209 28.7093 41.4146 28.7093 41.3101C28.7093 40.8502 24.633 39.3033 21.9155 38.718C21.3302 38.5926 21.372 38.5717 22.5426 38.2372C26.8071 37.0039 30.1935 33.5547 31.3014 29.2903C31.7404 27.6598 31.7404 24.5241 31.3014 22.8936C30.1726 18.5456 26.6398 15.0128 22.2918 13.884C20.5777 13.445 17.2748 13.4659 15.6443 13.9467Z" fill="#7299BE"/>
<path d="M15.7123 13.3381C15.0011 13.5115 13.7522 13.9797 12.9369 14.3958C11.7227 15.0027 11.133 15.4535 9.78001 16.8059C8.35765 18.2277 8.01074 18.6786 7.33425 20.1004C6.17208 22.4758 5.92924 23.7242 6.01597 26.5505C6.12004 29.134 6.46696 30.4171 7.64647 32.5672C8.63519 34.3358 11.0636 36.6592 12.9196 37.5782C14.9491 38.5839 16.701 39 18.9906 39C21.2803 39 23.0149 38.6012 25.0617 37.5782C26.2585 36.9887 26.8483 36.5378 28.1839 35.1854C29.5369 33.8503 29.9879 33.2608 30.5776 32.0644C31.601 30.001 32 28.2844 32 25.9263C32 23.5682 31.6184 22.0077 30.5776 19.927C29.9879 18.7306 29.5195 18.141 28.1839 16.8059C26.8483 15.4535 26.2585 15.0027 25.0617 14.4131C24.2464 14.0143 22.9628 13.5288 22.217 13.3381C20.4303 12.8873 17.5336 12.8873 15.7123 13.3381Z" fill="#C3CDB4"/>
<path d="M85.0459 13.9467C80.7397 15.2009 77.395 18.6292 76.2871 22.8936C76.099 23.6044 75.9526 25.0258 75.9526 26.0919C75.9526 27.1581 76.099 28.5795 76.2871 29.2903C77.3741 33.5129 80.8442 37.0457 85.0459 38.2372C86.2165 38.5717 86.2583 38.5926 85.673 38.718C82.9555 39.3033 78.8792 40.8711 78.8792 41.331C78.8792 41.4355 79.1928 42.209 79.5899 43.0661C80.4888 45.0519 81.3041 47.5813 81.7222 49.7763C82.1402 51.9921 82.3911 70.9103 82.0357 73.8369C81.6595 76.9307 80.2171 79.3346 77.834 80.8606C76.9351 81.425 76.7888 81.6341 76.7888 82.1985C76.7888 82.5539 77.3114 87.9471 77.9385 94.1974C79.1719 106.531 79.151 106.447 80.5097 107.242C81.0741 107.576 81.8685 107.618 88.4951 107.618C95.1217 107.618 95.916 107.576 96.4804 107.262C97.8601 106.426 97.7974 106.824 99.3652 91.0618C100.18 83.0974 100.828 76.5126 100.828 76.4081C100.828 76.3245 101.832 76.2617 103.086 76.2617C105.553 76.2617 106.138 76.0527 106.912 74.8821C107.288 74.3177 107.309 73.7323 107.309 64.5346C107.309 54.8978 107.309 54.7514 106.807 52.7865C105.072 45.9717 99.846 40.8084 92.9477 39.0943L90.7527 38.5508L91.9861 38.2163C96.1878 37.0457 99.5952 33.5547 100.703 29.2903C101.142 27.6598 101.142 24.5241 100.703 22.8936C99.5743 18.5456 96.0415 15.0128 91.6934 13.884C89.9793 13.445 86.6764 13.4659 85.0459 13.9467Z" fill="#7299BE"/>
<path d="M85.3387 13.3381C84.6549 13.5115 83.454 13.9797 82.6701 14.3958C81.5026 15.0027 80.9356 15.4535 79.6346 16.8059C78.267 18.2277 77.9334 18.6786 77.2829 20.1004C76.1655 22.4758 75.932 23.7242 76.0154 26.5505C76.1154 29.134 76.449 30.4171 77.5831 32.5672C78.5338 34.3358 80.8688 36.6592 82.6535 37.5782C84.6049 38.5839 86.2894 39 88.491 39C90.6926 39 92.3604 38.6012 94.3285 37.5782C95.4794 36.9887 96.0464 36.5378 97.3307 35.1854C98.6316 33.8503 99.0653 33.2608 99.6323 32.0644C100.616 30.001 101 28.2844 101 25.9263C101 23.5682 100.633 22.0077 99.6323 19.927C99.0653 18.7306 98.6149 18.141 97.3307 16.8059C96.0464 15.4535 95.4794 15.0027 94.3285 14.4131C93.5446 14.0143 92.3104 13.5288 91.5932 13.3381C89.8753 12.8873 87.09 12.8873 85.3387 13.3381Z" fill="#C3CDB4"/>
<path d="M48.1502 32.6767C40.6874 34.6208 34.9388 40.2231 32.5349 47.9576L31.9495 49.8181L31.8868 61.7334C31.8032 74.9866 31.7614 74.5267 33.2038 75.4256C33.81 75.8018 34.2699 75.8437 37.8654 75.8437H41.8581L41.9835 76.9307C42.0462 77.5369 42.6106 84.2262 43.2168 91.7726C44.4502 106.74 44.3875 106.364 45.7671 107.221C46.3734 107.597 46.8751 107.618 53.7943 107.618C60.7136 107.618 61.2153 107.597 61.8215 107.221C63.2011 106.364 63.1384 106.74 64.3718 91.7726C64.978 84.2262 65.5424 77.5369 65.6051 76.9307L65.7305 75.8437H69.7232C73.3187 75.8437 73.7786 75.8018 74.3848 75.4256C75.8272 74.5267 75.7854 74.9866 75.7018 61.7334L75.6391 49.8181L75.0538 47.9576C73.0888 41.6237 69.2006 37.0039 63.5147 34.2236C61.8215 33.4084 57.9751 32.1541 57.1181 32.1541C57.0344 32.1541 56.9299 37.2129 56.8881 43.3796C56.8254 54.5215 56.8254 54.626 56.3655 55.3577C55.7802 56.3192 54.8813 56.8209 53.7943 56.8209C52.7073 56.8209 51.8084 56.3192 51.2231 55.3577C50.7632 54.626 50.7632 54.5215 50.7005 43.3796C50.6587 34.7671 50.5751 32.1541 50.3869 32.1541C50.2406 32.175 49.2372 32.405 48.1502 32.6767Z" fill="#7299BE"/>
</svg>
