<svg width="79" height="68" viewBox="0 0 79 68" fill="none" xmlns="http://www.w3.org/2000/svg">
<rect x="0.5" y="0.5" width="78" height="67" rx="4" fill="#4A6B85"/>
<path d="M41.9883 54.1558C45.7283 51.625 48.292 48.9135 49.6794 46.0212C51.0668 43.1891 51.7605 40.4776 51.7605 37.8865C51.7605 35.1147 51.0065 32.6442 49.4984 30.475C47.9301 28.366 46.2109 26.5282 44.3409 24.9615C43.4964 24.0577 43.0741 23.0635 43.0741 21.9788C43.0741 20.7135 43.4964 19.418 44.3409 18.0923C45.1854 16.7667 46.3014 15.5314 47.6888 14.3865C49.0762 13.2417 50.7049 12.3077 52.5749 11.5846C54.3846 10.8615 56.2847 10.5 58.2754 10.5C60.2057 10.5 61.8344 10.9821 63.1615 11.9462C64.4282 12.9103 65.4537 14.0853 66.2379 15.4712C67.0221 16.8571 67.5952 18.3032 67.9571 19.8096C68.319 21.3763 68.5 22.7622 68.5 23.9673C68.5 27.4622 67.8666 30.8064 66.5998 34C65.3331 37.2538 63.6139 40.2968 61.4423 43.1288C59.2707 45.9609 56.7371 48.5519 53.8417 50.9019C50.9462 53.3122 47.8999 55.4513 44.7028 57.3192L41.9883 54.1558ZM10.5 54.3365C14.1797 51.8058 16.7434 49.0942 18.1911 46.2019C19.5785 43.3699 20.2722 40.6583 20.2722 38.0673C20.2722 35.2955 19.5182 32.825 18.0101 30.6558C16.4418 28.5468 14.7226 26.709 12.8526 25.1423C12.0081 24.2385 11.5858 23.2442 11.5858 22.1596C11.5858 20.8942 12.0081 19.5987 12.8526 18.2731C13.6971 16.9474 14.8131 15.7122 16.2005 14.5673C17.5879 13.4224 19.2166 12.4885 21.0866 11.7654C22.8963 11.0423 24.7964 10.6808 26.7871 10.6808C28.7174 10.6808 30.3159 11.1628 31.5827 12.1269C32.8495 13.091 33.9051 14.266 34.7496 15.6519C35.5338 17.0378 36.1069 18.484 36.4688 19.9904C36.7704 21.5571 36.9212 22.9429 36.9212 24.1481C36.9212 27.6429 36.2878 30.9872 35.0211 34.1808C33.7543 37.4346 32.0351 40.4776 29.8635 43.3096C27.6919 46.1417 25.1885 48.7327 22.3534 51.0827C19.4579 53.4929 16.4116 55.632 13.2145 57.5L10.5 54.3365Z" fill="#ECEAEA"/>
</svg>
