<svg width="39" height="34" viewBox="0 0 39 34" fill="none" xmlns="http://www.w3.org/2000/svg">
<path d="M14.4095 0.590519C9.39831 1.2661 5.033 4.14661 2.41975 8.48965C1.26161 10.4125 0.474664 12.7288 0.192552 15.0228C0.0886162 15.9211 0.103464 18.1928 0.222248 19.106C1.12798 25.8395 5.9907 31.2962 12.5535 32.9517C15.4711 33.6867 18.7897 33.5902 21.6256 32.6845C27.7282 30.732 32.1677 25.3867 32.9695 19.0317C33.1328 17.7845 33.0883 15.3049 32.8953 14.2061C32.6874 13.048 32.3533 11.8601 31.9598 10.8728C31.5664 9.87794 31.0096 8.77176 30.8908 8.73465C30.7572 8.69753 28.2553 10.8505 28.2553 10.999C28.2553 11.0361 28.3666 11.3108 28.5077 11.6152C30.1113 15.1044 29.9925 19.1951 28.181 22.7883C26.8521 25.4238 24.7883 27.4728 22.2047 28.72C19.6954 29.9302 16.7703 30.2865 13.9938 29.7223C10.7124 29.0541 7.66852 26.9977 5.79767 24.1914C2.82065 19.7296 2.82065 14.1764 5.79767 9.71461C7.66852 6.90834 10.7124 4.85189 13.9938 4.18373C17.587 3.45618 21.2322 4.25055 24.2537 6.42578C24.5284 6.61881 24.766 6.78213 24.7883 6.78213C24.8105 6.78213 25.2411 6.4926 25.746 6.12882C26.2508 5.77247 26.9041 5.33445 27.2011 5.15628C27.4906 4.9781 27.7356 4.80735 27.7356 4.77023C27.7356 4.74053 27.4461 4.47327 27.0897 4.17631C24.7363 2.23865 21.8632 0.99884 18.7526 0.575672C17.7726 0.449463 15.4043 0.449463 14.4095 0.590519Z" fill="white"/>
<path d="M36.8325 2.37976C36.3276 2.44658 34.9319 2.72127 34.2638 2.89202C31.5986 3.56018 28.7403 4.91877 26.1865 6.73765C23.5732 8.59365 20.6704 11.4667 18.4284 14.4215C18.0126 14.9783 17.5746 15.5722 17.4558 15.743C17.3445 15.9211 17.2257 16.0622 17.196 16.0622C17.1663 16.0622 16.9584 15.7801 16.7283 15.4386C15.4068 13.4564 13.7141 11.8305 12.5412 11.4296C11.9769 11.2292 11.3607 11.2069 10.8188 11.348C9.40823 11.7117 8.67325 12.5135 8.59901 13.7682C8.54704 14.6665 8.74749 14.9412 10.1432 15.9137C12.2368 17.3688 14.4268 20.3755 16.1195 24.1172C16.7209 25.4313 16.8545 25.5872 17.248 25.4016C17.4113 25.3199 17.5301 25.112 17.879 24.2657C19.3712 20.6651 21.346 17.4505 24.0706 14.1691C25.1471 12.8699 28.035 9.99679 29.4382 8.83122C31.9772 6.71538 34.5979 4.94104 37.2334 3.56018C38.0871 3.11474 38.0946 3.10732 38.1168 2.8252C38.1539 2.40946 38.0426 2.3278 37.5081 2.33522C37.2631 2.34264 36.9587 2.36492 36.8325 2.37976Z" fill="#E1D071"/>
</svg>
