<svg width="19" height="16" viewBox="0 0 19 16" fill="none" xmlns="http://www.w3.org/2000/svg">
<path d="M0.875 1.19238V0.473633C0.684376 0.473633 0.501559 0.549358 0.366767 0.68415C0.231975 0.818941 0.15625 1.00176 0.15625 1.19238H0.875ZM18.125 1.19238H18.8438C18.8438 1.00176 18.768 0.818941 18.6332 0.68415C18.4984 0.549358 18.3156 0.473633 18.125 0.473633V1.19238ZM0.875 1.91113H18.125V0.473633H0.875V1.91113ZM17.4062 1.19238V12.6924H18.8438V1.19238H17.4062ZM16.2083 13.8903H2.79167V15.3278H16.2083V13.8903ZM1.59375 12.6924V1.19238H0.15625V12.6924H1.59375ZM2.79167 13.8903C2.13042 13.8903 1.59375 13.3536 1.59375 12.6924H0.15625C0.15625 13.3913 0.433909 14.0617 0.928146 14.5559C1.42238 15.0501 2.09271 15.3278 2.79167 15.3278V13.8903ZM17.4062 12.6924C17.4062 13.3536 16.8696 13.8903 16.2083 13.8903V15.3278C16.9073 15.3278 17.5776 15.0501 18.0719 14.5559C18.5661 14.0617 18.8438 13.3913 18.8438 12.6924H17.4062Z" fill="#666666"/>
<path d="M0.875 1.19238L9.5 9.81738L18.125 1.19238" stroke="#666666" stroke-width="1.4375" stroke-linecap="round" stroke-linejoin="round"/>
</svg>
