<svg width="15" height="18" viewBox="0 0 15 18" fill="none" xmlns="http://www.w3.org/2000/svg">
<path d="M0.791748 16.5677V15.6094C0.791748 13.8302 1.49852 12.1239 2.75657 10.8659C4.01463 9.60781 5.72092 8.90104 7.50008 8.90104M7.50008 8.90104C9.27924 8.90104 10.9855 9.60781 12.2436 10.8659C13.5016 12.1239 14.2084 13.8302 14.2084 15.6094V16.5677M7.50008 8.90104C8.51674 8.90104 9.49177 8.49717 10.2107 7.77828C10.9295 7.05939 11.3334 6.08437 11.3334 5.06771C11.3334 4.05105 10.9295 3.07602 10.2107 2.35713C9.49177 1.63824 8.51674 1.23438 7.50008 1.23438C6.48342 1.23438 5.50839 1.63824 4.78951 2.35713C4.07062 3.07602 3.66675 4.05105 3.66675 5.06771C3.66675 6.08437 4.07062 7.05939 4.78951 7.77828C5.50839 8.49717 6.48342 8.90104 7.50008 8.90104Z" stroke="#666666" stroke-width="1.4375" stroke-linecap="round" stroke-linejoin="round"/>
</svg>
