<svg width="48" height="34" viewBox="0 0 48 34" fill="none" xmlns="http://www.w3.org/2000/svg">
<g clip-path="url(#clip0_103_76)">
<path fill-rule="evenodd" clip-rule="evenodd" d="M12.1474 5.34379L0.525879 16.8484C2.85039 19.1496 5.50579 21.089 8.40093 22.6062C9.20116 24.7076 10.4555 26.6783 12.1639 28.3695C18.5915 34.7324 29.0126 34.7324 35.44 28.3695C37.1485 26.6783 38.4028 24.7076 39.2031 22.6061C42.0981 21.089 44.7536 19.1496 47.0781 16.8484L35.466 5.35315C35.4574 5.34454 35.4487 5.33594 35.44 5.32735C29.0126 -1.03555 18.5915 -1.03555 12.1639 5.32735C12.1584 5.33284 12.1529 5.33831 12.1474 5.34379ZM34.328 24.6819C30.9413 25.8133 27.3861 26.3928 23.802 26.3928C20.2178 26.3928 16.6627 25.8133 13.2761 24.6819C13.643 25.1638 14.0481 25.6263 14.4915 26.0653C19.6336 31.1557 27.9704 31.1557 33.1124 26.0653C33.5558 25.6263 33.9611 25.1638 34.328 24.6819ZM14.7302 7.40114C15.6034 7.97223 16.5319 8.46092 17.5035 8.85934C19.5003 9.67815 21.6406 10.0996 23.802 10.0996C25.9634 10.0996 28.1036 9.67815 30.1005 8.85934C31.072 8.46092 32.0005 7.97222 32.8738 7.40112C27.7959 2.61805 19.808 2.61806 14.7302 7.40114Z" fill="#3B4158"/>
</g>
<defs>
<clipPath id="clip0_103_76">
<rect width="46.5522" height="32.5865" fill="white" transform="translate(0.525879 0.555176)"/>
</clipPath>
</defs>
</svg>
