<svg width="65" height="36" viewBox="0 0 65 36" fill="none" xmlns="http://www.w3.org/2000/svg">
<g clip-path="url(#clip0_103_79)">
<path d="M64.5236 12.8085C64.5302 12.76 64.5302 12.7109 64.5236 12.6624C64.5299 12.6228 64.5299 12.5825 64.5236 12.5429L64.0494 9.12986C63.981 8.72153 63.798 8.33989 63.5211 8.02761L63.4398 7.93464L63.2909 7.78855L55.0819 0.856257L55.3121 1.08204C55.1237 0.861052 54.8872 0.684292 54.62 0.564779C54.3528 0.445265 54.0615 0.386036 53.7679 0.39146H51.2753C50.87 0.383587 50.474 0.509921 50.151 0.750032C49.8118 0.511367 49.4035 0.38568 48.986 0.39146H46.4935C46.1666 0.386261 45.8442 0.465799 45.5587 0.622045C45.2732 0.778291 45.035 1.0057 44.868 1.28123C44.6106 1.67478 44.5138 2.14894 44.597 2.60926L44.9086 4.76065C44.7022 4.64594 44.4686 4.58642 44.2313 4.58803H32.1616C31.7286 4.59069 31.3055 4.71513 30.9424 4.94658C30.5914 5.16202 30.3096 5.4705 30.1297 5.83635L29.195 5.05282C28.8271 4.71912 28.3415 4.53825 27.8404 4.54818H8.90279C8.46822 4.55594 8.04329 4.67497 7.67013 4.89347C7.1596 5.18641 6.78546 5.66274 6.62704 6.22149L0.612527 25.9427C0.500148 26.2676 0.489093 26.6181 0.580778 26.9493C0.672463 27.2803 0.862736 27.5773 1.12729 27.8019C1.19622 27.8592 1.2686 27.9125 1.34403 27.9612C1.34403 27.9612 1.2221 27.8816 1.15437 27.8152L9.3634 34.7608C9.71066 35.0742 10.1647 35.2494 10.6367 35.2521H29.7233C30.1592 35.241 30.5844 35.1173 30.956 34.8935C31.1662 34.7809 31.3542 34.6325 31.5114 34.4553L31.5792 34.3623L31.6875 34.2296L31.7688 34.0834L32.6629 34.8405C33.0051 35.1414 33.4493 35.307 33.9091 35.3053H53.0363C53.4718 35.291 53.8962 35.1676 54.269 34.9467C54.4745 34.8272 54.6614 34.6796 54.8245 34.5084L54.8921 34.4155L55.0005 34.2827C55.0581 34.1987 55.1081 34.1098 55.1495 34.017C55.1938 33.9365 55.23 33.852 55.2579 33.7648L60.7441 15.7567V15.5974C60.7509 15.5356 60.7509 15.4732 60.7441 15.4114V15.2919C60.7507 15.2523 60.7507 15.212 60.7441 15.1724C60.7502 15.0884 60.7502 15.0041 60.7441 14.92H62.5051C62.6583 14.9338 62.8125 14.9338 62.9657 14.92H63.0876C63.1868 14.891 63.2822 14.8509 63.3721 14.8005H63.5076L63.7514 14.6146L63.8597 14.5349L64.0494 14.2958V14.2162L64.1849 13.9904C64.1773 13.9465 64.1773 13.9016 64.1849 13.8577C64.1777 13.8361 64.1777 13.8128 64.1849 13.7913C64.2137 13.7134 64.2363 13.6334 64.2526 13.5522C64.2463 13.526 64.2463 13.4987 64.2526 13.4725C64.246 13.4329 64.246 13.3925 64.2526 13.353C64.2526 13.353 64.5236 12.835 64.5236 12.8085Z" fill="black"/>
<path d="M28.3958 6.06263C28.4677 6.12638 28.5179 6.21021 28.5397 6.30282C28.5616 6.39543 28.5538 6.49236 28.5177 6.58055L22.5168 26.2885C22.4412 26.5036 22.2866 26.6835 22.0833 26.7931C21.9179 26.9016 21.7264 26.9657 21.5278 26.9791H2.45483C2.29194 26.9714 2.13763 26.9052 2.02134 26.7931C1.95217 26.7304 1.90362 26.6489 1.8819 26.559C1.86018 26.4691 1.8663 26.375 1.89943 26.2885L7.91395 6.58055C7.98324 6.36267 8.13298 6.17797 8.33387 6.06263C8.50205 5.96192 8.69263 5.90268 8.88927 5.88998H27.9623C28.1239 5.8915 28.2789 5.95323 28.3958 6.06263ZM18.4393 22.3177L22.0291 10.5513H11.9778L8.40159 22.3177H18.4393ZM46.6019 6.26182C46.6669 6.33596 46.7483 6.39476 46.8398 6.43384C46.9312 6.47293 47.0305 6.4913 47.1302 6.48758H49.6091C49.7036 6.48849 49.7966 6.4658 49.8796 6.42165C49.9625 6.3775 50.0326 6.31335 50.0833 6.23526C50.1273 6.17426 50.1584 6.10521 50.1746 6.03221C50.1909 5.95921 50.1921 5.88375 50.178 5.8103L49.6904 2.30431C49.644 2.14205 49.5606 1.99221 49.4466 1.86606C49.3815 1.79192 49.3002 1.73312 49.2087 1.69404C49.1173 1.65495 49.018 1.63659 48.9183 1.6403H46.4394C46.3449 1.6394 46.2519 1.66209 46.1689 1.70624C46.086 1.75039 46.0158 1.81454 45.9652 1.89263C45.8704 2.07855 45.8298 2.19807 45.8704 2.30431L46.3716 5.8103C46.3973 5.98101 46.478 6.1392 46.6019 6.26182ZM54.4723 2.27775C54.4258 2.11548 54.3424 1.96564 54.2284 1.8395C54.1661 1.76563 54.0871 1.70685 53.9979 1.6677C53.9086 1.62855 53.8114 1.61008 53.7136 1.61374H51.2211C51.1283 1.61114 51.0365 1.63323 50.9554 1.67765C50.8743 1.72207 50.807 1.78718 50.7606 1.86606C50.6705 1.98388 50.6314 2.13187 50.6522 2.27775L51.1534 5.78373C51.1848 5.95265 51.2647 6.10927 51.3837 6.23526C51.4499 6.30795 51.5315 6.36576 51.6227 6.40472C51.7139 6.44369 51.8125 6.46289 51.912 6.46101H54.4045C54.4971 6.46222 54.5884 6.43955 54.6692 6.39526C54.7501 6.35097 54.8176 6.28665 54.8651 6.20871C54.9122 6.14929 54.9451 6.08027 54.9616 6.00674C54.978 5.93321 54.9774 5.85702 54.9599 5.78373L54.4723 2.27775ZM44.4209 7.58985L44.1771 5.86342H32.1616C31.973 5.87361 31.7905 5.93324 31.6333 6.03606C31.5336 6.0894 31.4467 6.16333 31.3789 6.25274C31.3111 6.34217 31.2639 6.44494 31.2405 6.55399L30.2381 9.84747C30.1981 9.92978 30.1844 10.0221 30.1989 10.1122C30.2135 10.2023 30.2554 10.2859 30.3193 10.3522C30.4336 10.4574 30.5827 10.5188 30.7393 10.5248H45.3421L41.7524 22.2911H27.1902C27.0024 22.2953 26.8195 22.3505 26.6619 22.4504C26.4703 22.5697 26.3304 22.7542 26.2691 22.9684L25.2531 26.2619C25.2199 26.3464 25.2112 26.4382 25.2279 26.5273C25.2447 26.6164 25.2862 26.6991 25.3479 26.7665C25.4585 26.8789 25.6088 26.9454 25.7678 26.9524H44.895C45.0928 26.9358 45.2835 26.872 45.4504 26.7665C45.6504 26.6564 45.8005 26.4761 45.8704 26.2619L51.3701 8.25386H45.1795C45.0813 8.25576 44.9838 8.23788 44.8929 8.20134C44.8021 8.16479 44.7198 8.11033 44.6513 8.04137C44.5393 7.92094 44.46 7.77479 44.4209 7.61641V7.58985Z" fill="white"/>
</g>
<defs>
<clipPath id="clip0_103_79">
<rect width="64.0093" height="34.9141" fill="white" transform="translate(0.519287 0.391113)"/>
</clipPath>
</defs>
</svg>
