<svg width="47" height="48" viewBox="0 0 47 48" fill="none" xmlns="http://www.w3.org/2000/svg">
<g clip-path="url(#clip0_103_73)">
<path fill-rule="evenodd" clip-rule="evenodd" d="M12.0238 0.750977C18.4513 0.750977 23.6618 5.9615 23.6618 12.389V0.750977H35.2999C41.7273 0.750977 46.9379 5.9615 46.9379 12.389C46.9379 18.8165 41.7273 24.0271 35.2999 24.0271C41.7273 24.0271 46.9379 29.2377 46.9379 35.6651C46.9379 38.8566 45.6532 41.7481 43.5728 43.8506L43.5293 43.8945L43.4906 43.9329C41.3876 46.0163 38.4941 47.3032 35.2999 47.3032C32.1275 47.3032 29.2515 46.0338 27.1521 43.9753C27.1249 43.9485 27.0976 43.9215 27.0705 43.8945C27.045 43.869 27.0196 43.8434 26.9944 43.8177C24.9332 41.718 23.6618 38.84 23.6618 35.6651C23.6618 42.0926 18.4513 47.3032 12.0238 47.3032C5.59627 47.3032 0.385742 42.0926 0.385742 35.6651V24.0271H12.0238C5.59627 24.0271 0.385742 18.8165 0.385742 12.389C0.385742 5.9615 5.59627 0.750977 12.0238 0.750977ZM21.3342 12.389C21.3342 17.5311 17.1658 21.6995 12.0238 21.6995V3.07859C17.1658 3.07859 21.3342 7.24701 21.3342 12.389ZM44.6103 35.6651C44.6103 30.5231 40.4419 26.3547 35.2999 26.3547C30.1578 26.3547 25.9894 30.5231 25.9894 35.6651H44.6103ZM2.71335 26.3547V35.6651C2.71335 40.8072 6.88177 44.9756 12.0238 44.9756C17.1658 44.9756 21.3342 40.8072 21.3342 35.6651V26.3547H2.71335ZM25.9894 21.6995V3.07859H35.2999C40.4419 3.07859 44.6103 7.24701 44.6103 12.389C44.6103 17.5311 40.4419 21.6995 35.2999 21.6995H25.9894Z" fill="#263238"/>
</g>
<defs>
<clipPath id="clip0_103_73">
<rect width="46.5522" height="46.5522" fill="white" transform="translate(0.385742 0.750977)"/>
</clipPath>
</defs>
</svg>
