<svg width="49" height="33" viewBox="0 0 49 33" fill="none" xmlns="http://www.w3.org/2000/svg">
<g clip-path="url(#clip0_103_99)">
<path d="M45.6797 1.70022C45.6797 2.24254 46.1247 2.68218 46.6738 2.68218H47.6679C48.2169 2.68218 48.6619 2.24254 48.6619 1.70022C48.6619 1.1579 48.2169 0.718262 47.6679 0.718262H46.6738C46.1247 0.718262 45.6797 1.1579 45.6797 1.70022Z" fill="#212326"/>
<path d="M16.8514 32.141H21.6805L20.2746 30.7523C19.9018 30.384 19.3961 30.1771 18.8688 30.1771H16.8514C9.16512 30.1771 2.93421 24.0221 2.93421 16.4296C2.93421 8.83711 9.16512 2.68219 16.8514 2.68218H32.7567C40.443 2.68218 46.6739 8.83711 46.6739 16.4296C46.6739 24.0221 40.443 30.1771 32.7567 30.1771H26.8068C26.0159 30.1771 25.2573 29.8667 24.698 29.3143L23.051 27.6873C22.1189 26.7665 20.8546 26.2492 19.5364 26.2492H16.8514C11.3612 26.2492 6.91054 21.8529 6.91054 16.4296C6.91054 11.0064 11.3612 6.61002 16.8514 6.61002H32.7567C38.2469 6.61002 42.6975 11.0064 42.6975 16.4296C42.6975 21.8529 38.2469 26.2492 32.7567 26.2492H28.9363C28.1454 26.2492 27.3868 25.9389 26.8275 25.3864L25.1804 23.7595C24.2483 22.8387 22.9841 22.3214 21.6658 22.3214H16.8514C13.5573 22.3214 10.8869 19.6835 10.8869 16.4296C10.8869 13.1757 13.5573 10.5379 16.8514 10.5379H32.7567C36.0508 10.5379 38.7212 13.1757 38.7212 16.4296C38.7212 19.6439 36.1155 22.257 32.877 22.3202L32.8763 22.3214H31.4215C30.6306 22.3214 29.872 22.011 29.3127 21.4586L27.6657 19.8316C26.9008 19.076 25.9124 18.5922 24.854 18.4429L24.804 18.3935H16.8514C15.7534 18.3935 14.8632 17.5143 14.8632 16.4296C14.8632 15.345 15.7534 14.4657 16.8514 14.4657H32.7567C33.8547 14.4657 34.7449 15.345 34.7449 16.4296C34.7449 17.5143 33.8547 18.3935 32.7567 18.3935H28.7804L30.1862 19.7823C30.5591 20.1505 31.0648 20.3575 31.592 20.3575H32.7567C34.9528 20.3575 36.733 18.5989 36.733 16.4296C36.733 14.2604 34.9528 12.5018 32.7567 12.5018H16.8514C14.6553 12.5018 12.875 14.2604 12.875 16.4296C12.875 18.5989 14.6553 20.3575 16.8514 20.3575H24.151C24.942 20.3575 25.7005 20.6678 26.2599 21.2203L27.9069 22.8472C28.8391 23.768 30.1033 24.2853 31.4215 24.2853H33.2537V24.2702C37.4143 24.0168 40.7094 20.6033 40.7094 16.4296C40.7094 12.0911 37.1488 8.57394 32.7567 8.57394H16.8514C12.4593 8.57394 8.89871 12.0911 8.89871 16.4296C8.89871 20.7682 12.4593 24.2853 16.8514 24.2853H21.6658C22.4568 24.2853 23.2153 24.5957 23.7746 25.1481L25.4217 26.7751C26.3539 27.6959 27.6181 28.2132 28.9363 28.2132H32.7567C39.3449 28.2132 44.6857 22.9375 44.6857 16.4296C44.6857 9.92174 39.3449 4.6461 32.7567 4.6461H16.8514C10.2631 4.6461 4.92238 9.92174 4.92238 16.4296C4.92238 22.9375 10.2631 28.2132 16.8514 28.2132H19.5364C20.3273 28.2132 21.0859 28.5235 21.6452 29.0759L23.2922 30.7029C24.2244 31.6237 25.4886 32.141 26.8068 32.141H32.7567C41.541 32.141 48.662 25.1068 48.662 16.4296C48.662 7.75248 41.541 0.718261 32.7567 0.718262L16.8514 0.718265C8.0671 0.718266 0.946044 7.75248 0.946045 16.4296C0.946046 25.1068 8.06711 32.141 16.8514 32.141Z" fill="#212326"/>
</g>
<defs>
<clipPath id="clip0_103_99">
<rect width="47.716" height="31.4227" fill="white" transform="translate(0.946045 0.71875)"/>
</clipPath>
</defs>
</svg>
