<svg width="23" height="18" viewBox="0 0 23 18" fill="none" xmlns="http://www.w3.org/2000/svg">
<path d="M20.5358 1.50781H2.46439C2.02868 1.50781 1.61081 1.6809 1.30271 1.98899C0.994619 2.29709 0.821533 2.71496 0.821533 3.15067V14.6507C0.821533 15.0864 0.994619 15.5042 1.30271 15.8123C1.61081 16.1204 2.02868 16.2935 2.46439 16.2935H20.5358C20.9715 16.2935 21.3894 16.1204 21.6975 15.8123C22.0056 15.5042 22.1787 15.0864 22.1787 14.6507V3.15067C22.1787 2.71496 22.0056 2.29709 21.6975 1.98899C21.3894 1.6809 20.9715 1.50781 20.5358 1.50781Z" stroke="#666666" stroke-width="1.64286" stroke-linecap="round" stroke-linejoin="round"/>
<path d="M13.9644 6.43652H18.0716M13.9644 11.3651H18.0716M7.393 11.3651C7.71661 11.3651 8.03706 11.3014 8.33604 11.1775C8.63502 11.0537 8.90668 10.8722 9.13551 10.6433C9.36434 10.4145 9.54586 10.1428 9.6697 9.84385C9.79354 9.54487 9.85728 9.22442 9.85728 8.90081C9.85728 8.57719 9.79354 8.25675 9.6697 7.95777C9.54586 7.65879 9.36434 7.38713 9.13551 7.1583C8.90668 6.92947 8.63502 6.74795 8.33604 6.62411C8.03706 6.50026 7.71661 6.43652 7.393 6.43652C6.73943 6.43652 6.11263 6.69615 5.65048 7.1583C5.18834 7.62044 4.92871 8.24724 4.92871 8.90081C4.92871 9.55438 5.18834 10.1812 5.65048 10.6433C6.11263 11.1055 6.73943 11.3651 7.393 11.3651Z" stroke="#666666" stroke-width="1.64286" stroke-linecap="round" stroke-linejoin="round"/>
</svg>
